<svg xmlns="http://www.w3.org/2000/svg" width="1200" height="630" viewBox="0 0 1200 630"><rect width="100%" height="100%" fill="#0B0F12"/><path fill="#FFD700" d="M279.22 328.185q.76 0 1.34.58l3.66 3.97q-3.04 3.76-7.47 5.76t-10.64 2q-5.56 0-9.99-1.9-4.43-1.89-7.57-5.27-3.14-3.39-4.82-8.08-1.67-4.69-1.67-10.24 0-5.63 1.8-10.3 1.79-4.68 5.05-8.06t7.78-5.26 10-1.88q5.46 0 9.68 1.79 4.23 1.8 7.2 4.7l-3.11 4.31q-.28.41-.71.72t-1.19.31q-.51 0-1.07-.29-.55-.29-1.2-.72-.66-.43-1.52-.95t-2-.95-2.64-.73q-1.5-.29-3.47-.29-3.35 0-6.12 1.19-2.78 1.19-4.78 3.45t-3.11 5.52q-1.1 3.26-1.1 7.44 0 4.21 1.19 7.48 1.19 3.28 3.23 5.52 2.03 2.25 4.79 3.44t5.93 1.19q1.9 0 3.44-.21 1.53-.21 2.83-.66 1.29-.45 2.45-1.15 1.15-.71 2.29-1.74.35-.32.72-.5.38-.19.8-.19m20.66 4.1h19.94v7.66H290.6v-49.89h9.28zm37.06-11.18h15.87l-6.08-16.59q-.44-1.11-.93-2.62-.48-1.52-.96-3.28-.45 1.76-.93 3.29-.49 1.54-.94 2.68zm12.66-31.05 19.59 49.89h-7.17q-1.21 0-1.97-.6-.76-.61-1.14-1.5l-3.72-10.18h-20.67l-3.72 10.18q-.28.79-1.07 1.44-.8.66-1.97.66h-7.25l19.64-49.89zm34.08 0v49.89h-9.31v-49.89zm58.24 0h7v49.89h-8.17v-32.22q0-1.94.2-4.18l-15.07 28.33q-1.07 2.03-3.28 2.03h-1.31q-2.21 0-3.28-2.03l-15.25-28.43q.11 1.14.18 2.24.06 1.11.06 2.04v32.22h-8.17v-49.89h7q.62 0 1.07.04.45.03.81.17t.66.45q.29.31.57.83l14.93 27.7q.59 1.1 1.09 2.28.5 1.17.98 2.41.49-1.27 1.01-2.46.51-1.2 1.1-2.3l14.73-27.63q.28-.52.59-.83t.67-.45.81-.17q.45-.04 1.07-.04m50.37 41.95h12.8q1.38 0 2.19.78t.81 2.05v5.11h-34.22v-2.83q0-.86.36-1.81t1.16-1.71l15.14-15.18q1.9-1.93 3.4-3.69t2.5-3.48q1-1.73 1.54-3.51.53-1.77.53-3.74 0-1.79-.52-3.16-.51-1.36-1.46-2.29t-2.28-1.4q-1.33-.46-2.98-.46-1.52 0-2.82.43-1.29.43-2.29 1.21-1 .77-1.69 1.81-.69 1.03-1.04 2.27-.58 1.59-1.51 2.11-.94.52-2.7.24l-4.48-.79q.52-3.59 2-6.3t3.71-4.52q2.22-1.81 5.11-2.72 2.88-.92 6.19-.92 3.45 0 6.31 1.02 2.87 1.02 4.9 2.88 2.04 1.86 3.17 4.48 1.14 2.63 1.14 5.83 0 2.76-.81 5.11t-2.17 4.49q-1.36 2.13-3.19 4.14-1.83 2-3.83 4.07l-11.25 11.49q1.62-.49 3.23-.75 1.6-.26 3.05-.26m57.27-17q0 6.52-1.4 11.33-1.39 4.81-3.86 7.95t-5.83 4.68q-3.37 1.53-7.26 1.53-3.9 0-7.23-1.53-3.33-1.54-5.78-4.68t-3.83-7.95-1.38-11.33q0-6.56 1.38-11.35 1.38-4.8 3.83-7.94t5.78-4.67q3.33-1.54 7.23-1.54 3.89 0 7.26 1.54 3.36 1.53 5.83 4.67t3.86 7.94q1.4 4.79 1.4 11.35m-8.8 0q0-5.42-.79-8.97-.79-3.56-2.12-5.66-1.33-2.11-3.06-2.95-1.72-.85-3.58-.85-1.83 0-3.54.85-1.71.84-3.02 2.95-1.31 2.1-2.09 5.66-.77 3.55-.77 8.97 0 5.41.77 8.97.78 3.55 2.09 5.65 1.31 2.11 3.02 2.95 1.71.85 3.54.85 1.86 0 3.58-.85 1.73-.84 3.06-2.95 1.33-2.1 2.12-5.65.79-3.56.79-8.97m64.31-17.56h-22.15v14.76h18.7v7.42h-18.7v20.32h-9.31v-49.89h31.46zm16.87 16.35h5.8q2.62 0 4.57-.66 1.95-.65 3.21-1.81 1.26-1.15 1.88-2.74t.62-3.49q0-3.79-2.5-5.83-2.5-2.03-7.64-2.03h-5.94zm17.18 7.73 12.49 18.42h-8.38q-2.38 0-3.45-1.86l-10.49-15.98q-.59-.89-1.29-1.27-.71-.38-2.09-.38h-3.97v19.49h-9.28v-49.89h15.22q5.07 0 8.71 1.06 3.64 1.05 5.96 2.94 2.33 1.9 3.44 4.54 1.1 2.64 1.1 5.81 0 2.52-.74 4.77-.74 2.24-2.14 4.07t-3.45 3.21-4.67 2.17q.89.52 1.65 1.22.76.71 1.38 1.68m49.37-24.08h-22.15v13.83h17.46v7.14h-17.46v14.11h22.15v7.42h-31.46v-49.89h31.46zm39.68 0h-22.15v13.83h17.45v7.14h-17.45v14.11h22.15v7.42H696.7v-49.89h31.47zm59.23 30.74q.76 0 1.35.58l3.66 3.97q-3.04 3.76-7.47 5.76-4.44 2-10.65 2-5.55 0-9.98-1.9-4.44-1.89-7.58-5.27-3.14-3.39-4.81-8.08t-1.67-10.24q0-5.63 1.79-10.3 1.79-4.68 5.05-8.06 3.27-3.38 7.78-5.26 4.52-1.88 10.01-1.88 5.45 0 9.68 1.79 4.22 1.8 7.19 4.7l-3.1 4.31q-.28.41-.71.72t-1.19.31q-.52 0-1.07-.29t-1.21-.72q-.65-.43-1.52-.95-.86-.52-2-.95t-2.64-.73q-1.5-.29-3.46-.29-3.35 0-6.13 1.19t-4.78 3.45-3.1 5.52q-1.11 3.26-1.11 7.44 0 4.21 1.19 7.48 1.19 3.28 3.23 5.52 2.04 2.25 4.8 3.44t5.93 1.19q1.9 0 3.43-.21 1.54-.21 2.83-.66 1.3-.45 2.45-1.15 1.16-.71 2.3-1.74.34-.32.72-.5.38-.19.79-.19m58.96-13.18q0 5.48-1.81 10.16-1.81 4.67-5.12 8.09-3.31 3.41-7.97 5.33-4.66 1.91-10.35 1.91-5.66 0-10.32-1.91-4.65-1.92-7.98-5.33-3.33-3.42-5.16-8.09-1.83-4.68-1.83-10.16 0-5.49 1.83-10.16 1.83-4.68 5.16-8.09 3.33-3.42 7.98-5.33 4.66-1.92 10.32-1.92 3.79 0 7.14.88t6.14 2.48q2.8 1.61 5.02 3.9 2.23 2.3 3.78 5.13t2.36 6.14.81 6.97m-9.48 0q0-4.11-1.11-7.37-1.1-3.26-3.14-5.54-2.03-2.27-4.95-3.48-2.91-1.21-6.57-1.21t-6.57 1.21q-2.92 1.21-4.97 3.48-2.05 2.28-3.16 5.54-1.1 3.26-1.1 7.37 0 4.1 1.1 7.36 1.11 3.26 3.16 5.52t4.97 3.47q2.91 1.21 6.57 1.21t6.57-1.21q2.92-1.21 4.95-3.47 2.04-2.26 3.14-5.52 1.11-3.26 1.11-7.36m26.98-24.95v49.89h-9.32v-49.89zm45.02 0h8.17v49.89h-4.76q-1.1 0-1.84-.36t-1.43-1.23l-26.05-33.26q.21 2.28.21 4.21v30.64H875v-49.89h4.86q.59 0 1.02.05.43.06.76.21.33.16.64.45t.69.78l26.15 33.39q-.1-1.2-.17-2.38-.07-1.17-.07-2.17zm48.16 4.69-2.31 4.39q-.42.72-.88 1.05-.47.33-1.16.33-.72 0-1.57-.54-.84-.53-2.02-1.19-1.17-.65-2.74-1.19-1.57-.53-3.71-.53-1.93 0-3.38.46-1.45.47-2.43 1.3-.98.82-1.47 1.98-.48 1.16-.48 2.54 0 1.75.98 2.93.99 1.17 2.61 2t3.69 1.48q2.07.66 4.24 1.4 2.18.74 4.25 1.72 2.07.99 3.69 2.49t2.6 3.67q.99 2.18.99 5.28 0 3.38-1.16 6.33-1.15 2.95-3.38 5.14t-5.43 3.45q-3.21 1.26-7.35 1.26-2.38 0-4.69-.46-2.32-.47-4.44-1.33t-3.98-2.07q-1.87-1.21-3.31-2.69l2.72-4.45q.35-.49.9-.81.55-.33 1.17-.33.86 0 1.86.71 1 .7 2.38 1.56 1.38.87 3.23 1.57 1.85.71 4.43.71 3.97 0 6.14-1.88 2.18-1.88 2.18-5.4 0-1.96-.99-3.21-.98-1.24-2.6-2.08-1.62-.85-3.69-1.44-2.07-.58-4.21-1.27t-4.21-1.66q-2.07-.96-3.69-2.52-1.62-1.55-2.61-3.88-.98-2.33-.98-5.74 0-2.73 1.09-5.31 1.08-2.59 3.15-4.59t5.11-3.21 6.97-1.21q4.42 0 8.14 1.38 3.73 1.38 6.35 3.86"/></svg>